<?xml version="1.0" encoding="UTF-8"?><svg id="a" xmlns="http://www.w3.org/2000/svg" xmlns:xlink="http://www.w3.org/1999/xlink" viewBox="0 0 343.89 354.61"><defs><style>.f{fill:url(#c);}.g{fill:url(#b);}.h{fill:url(#d);}.i{fill:url(#e);}</style><linearGradient id="b" x1="61.56" y1="92.35" x2="294.87" y2="92.35" gradientTransform="translate(0 372.4) scale(1 -1)" gradientUnits="userSpaceOnUse"><stop offset=".67" stop-color="#009245"/><stop offset=".73" stop-color="#34b24a"/><stop offset=".92" stop-color="#34b24a"/></linearGradient><linearGradient id="c" x1="64.53" y1="285.76" x2="292.07" y2="285.76" gradientTransform="translate(0 372.4) scale(1 -1)" gradientUnits="userSpaceOnUse"><stop offset="0" stop-color="#39b54a"/><stop offset=".36" stop-color="#159f47"/><stop offset=".5" stop-color="#0b8640"/><stop offset=".67" stop-color="#037039"/><stop offset=".78" stop-color="#006837"/></linearGradient><linearGradient id="d" x1="118.94" y1="244.32" x2="192.19" y2="244.32" gradientTransform="translate(0 372.4) scale(1 -1)" gradientUnits="userSpaceOnUse"><stop offset=".15" stop-color="#39b54a"/><stop offset=".31" stop-color="#34b24a"/><stop offset=".42" stop-color="#1ea547"/><stop offset=".56" stop-color="#089745"/><stop offset=".66" stop-color="#009245"/></linearGradient><linearGradient id="e" x1="187.4" y1="263.05" x2="226.94" y2="263.05" gradientTransform="translate(0 372.4) scale(1 -1)" gradientUnits="userSpaceOnUse"><stop offset=".15" stop-color="#39b54a"/><stop offset=".31" stop-color="#34b24a"/><stop offset=".42" stop-color="#1ea547"/><stop offset=".56" stop-color="#089745"/><stop offset=".66" stop-color="#009245"/></linearGradient></defs><path class="g" d="M291.68,252.69c-12.04,18.64-29.38,34.1-49.48,44.43-10.02,5.25-20.8,9.04-31.84,11.63l-4.15,.94c-1.39,.27-2.8,.46-4.2,.69l-4.21,.67c-1.41,.19-2.82,.29-4.24,.44l-4.24,.4c-1.42,.11-2.84,.11-4.26,.17l-4.26,.14c-1.42,.05-2.83-.04-4.24-.06-5.65-.07-11.3-.53-16.92-1.18l-4.21-.61c-1.4-.23-2.81-.35-4.2-.68-2.77-.59-5.57-1.1-8.32-1.77-11.01-2.72-21.74-6.79-31.62-12.38-2.43-1.47-4.87-2.9-7.26-4.41-2.31-1.63-4.67-3.2-6.92-4.91-2.17-1.81-4.39-3.56-6.51-5.41-2.04-1.95-4.14-3.83-6.1-5.83-7.78-8.11-14.42-17.23-19.54-27.07,6.62,8.89,13.95,17.14,22.24,24.22,2.07,1.76,4.23,3.43,6.32,5.14,2.18,1.62,4.43,3.13,6.64,4.69l6.89,4.26c2.36,1.3,4.77,2.53,7.14,3.8,9.7,4.7,19.93,8.23,30.44,10.52,2.63,.55,5.29,1.01,7.93,1.52,1.31,.29,2.67,.38,4,.58l4.01,.52c5.36,.58,10.74,.99,16.14,1.03,21.51,.51,43.06-3.73,62.78-12.63,19.73-8.87,37.51-22.22,52.19-38.83v-.02Z"/><path class="f" d="M67.89,117.33c5.15-9.56,11.78-18.39,19.54-26.2,2.01-1.88,4.01-3.77,6.07-5.61,2.15-1.72,4.26-3.52,6.46-5.19,2.26-1.59,4.5-3.23,6.84-4.7l3.56-2.14c1.2-.7,2.36-1.47,3.61-2.07,9.74-5.35,20.31-9.12,31.11-11.71,10.82-2.54,21.94-3.71,33.02-3.75,22.2-.04,44.58,5.23,64.02,15.97,19.47,10.59,35.87,26.53,46.64,45.39-13.53-16.95-30.42-30.73-49.5-39.84-9.55-4.51-19.56-7.96-29.83-10.19l-3.87-.77c-1.29-.25-2.57-.56-3.88-.7l-3.91-.55c-1.3-.16-2.6-.42-3.91-.48-2.62-.2-5.24-.49-7.86-.63l-7.89-.2c-21.09,.04-42.22,3.97-61.32,13.01-9.52,4.52-18.55,10.2-26.72,17.04-8.25,6.77-15.55,14.72-22.18,23.31h0Z"/><path class="h" d="M192.19,150.96s-3.23-55.41-73.25-54.09c0,0,16.98,76.62,71.9,60.11l-46.8-40.29"/><path class="i" d="M187.5,128.22s-4.1-34.7,39.44-41.58c0,0-2.09,49.36-37.95,45.17l24.57-30.12"/><path d="M26.48,82.89c12.86-22.79,31.81-42.47,54.05-56.4C125.74-1.47,183.53-6.92,234.08,8.37c3.22,.84,7.56,2.64,10.75,3.7,3.18,1.04,7.37,3.1,10.5,4.36,1.75,.71,3.42,1.63,5.11,2.49,2.89,1.49,7.26,3.65,9.98,5.4l4.88,2.9,1.22,.72c1.14,.73,2.46,1.69,3.52,2.39,2.6,1.77,6.75,4.62,9.16,6.66,16.31,12.54,30.46,28.33,40.96,45.9-15.22-19.89-33.92-36.7-55.44-49.34C232.93,8.91,181.73,2.54,134.54,12.44,91.12,21.05,52.2,46.84,26.48,82.89h0Z"/><path d="M330.16,276.26c-33.3,50.09-94.08,80.13-154.18,78.27-41.34-.55-83.32-13.66-114.66-41.25-14.01-12.31-25.99-27.19-34.84-43.47,12.81,18.15,28.35,33.91,46.63,46.33,30.21,20.38,66.76,30.01,103.03,30.4,58.84,1.84,116.12-25.19,154.02-70.28h0Z"/><g><path d="M30.47,186.59l-2.99,3.52c3.48,.31,6.58,.73,9.32,1.26,2.73,.53,5.26,1.11,7.59,1.76,2.32,.64,4.37,1.32,6.12,2.02,6.17,2.58,9.26,6.17,9.26,10.78,0,2.81-1.29,5.57-3.87,8.26s-5.93,5.1-10.05,7.21c-4.12,2.11-8.36,3.76-12.71,4.95-4.36,1.19-8.31,1.79-11.87,1.79-5.94,0-10.57-1.1-13.89-3.31-3.32-2.21-4.98-5.22-4.98-9.05,0-2.66,1.02-5.78,3.05-9.38,2.03-3.59,5.18-8.07,9.43-13.42-3.2-.16-5.47-.63-6.8-1.44-1.33-.8-1.99-1.92-1.99-3.37,0-.9,.25-1.58,.76-2.05,.51-.47,1.19-.81,2.05-1.03,.86-.21,2.51-.48,4.95-.79,2.44-.31,5.58-.7,9.4-1.17,4.26-5.23,8.08-9.17,11.46-11.81,3.38-2.64,7-4.15,10.87-4.54,.31-.04,.65-.06,1.03-.06s.56,.1,.56,.29c0,.23-.44,.86-1.32,1.88-.88,1.02-2.31,2.64-4.28,4.86-1.97,2.23-4.31,4.86-7,7.91,7.34-.98,13.35-2.1,18.02-3.37,4.67-1.27,8.19-2.78,10.58-4.54,2.38-1.76,3.57-3.71,3.57-5.86,0-2.62-1.27-4.51-3.81-5.68-2.54-1.17-6.43-1.76-11.66-1.76-2.89,0-6.2,.29-9.93,.88-3.73,.59-7.11,1.25-10.14,1.99-3.03,.74-5.72,1.53-8.09,2.37-2.36,.84-3.54,1.46-3.54,1.85,0,.12,.12,.23,.35,.35,1.91,.7,2.87,1.29,2.87,1.76,0,.63-2.93,1.83-8.79,3.6-5.86,1.78-9.81,2.67-11.84,2.67-1.45,0-2.17-.72-2.17-2.17,0-1.72,1.57-4.81,4.72-9.29,3.14-4.47,6.01-7.33,8.58-8.58,.9-.43,2.99-1.11,6.27-2.05s6.88-1.84,10.81-2.7c3.93-.86,7.92-1.58,11.98-2.17,4.06-.59,7.66-.88,10.78-.88,7.38,0,12.93,1.32,16.64,3.96,3.71,2.64,5.57,5.95,5.57,9.93,0,2.7-.85,5.29-2.55,7.79-1.7,2.5-4.35,4.86-7.94,7.09-3.59,2.23-8.27,4.18-14.03,5.86-5.76,1.68-12.55,2.97-20.36,3.87Zm-6.21,7.56c-2.03,2.42-3.84,4.56-5.42,6.42s-2.72,3.36-3.4,4.51c-.68,1.15-1.03,2.31-1.03,3.49,0,1.88,.97,3.54,2.9,5.01s4.72,2.2,8.35,2.2c3.36,0,6.94-.59,10.75-1.79,3.81-1.19,7.01-2.74,9.61-4.66,2.6-1.91,3.9-3.85,3.9-5.8,0-1.68-.96-3.07-2.87-4.16-1.91-1.09-4.83-2.06-8.73-2.9-3.91-.84-8.59-1.61-14.06-2.31Z"/><path d="M102.3,207.62v3.93c-2.58,2.34-4.65,3.91-6.21,4.69-1.56,.78-3.81,1.09-6.74,.94-5.08,6.02-9.55,9.02-13.42,9.02-2.19,0-4.18-.72-5.98-2.17-1.8-1.44-3.23-3.42-4.31-5.92-1.08-2.5-1.61-5.29-1.61-8.38,0-2.5,.83-5.27,2.49-8.32,1.66-3.05,3.81-5.89,6.45-8.53s5.46-4.77,8.47-6.39c3.01-1.62,5.8-2.43,8.38-2.43,1.84,0,3.28,.28,4.34,.85,1.05,.57,1.58,1.36,1.58,2.37,0,.78-.45,1.68-1.35,2.7,1.48,.31,2.5,.83,3.05,1.55,.55,.72,.82,2.04,.82,3.96s-.44,4.24-1.32,7.09-2.08,5.53-3.6,8.03l1.05,1.05h.88c.66,0,1.32-.17,1.96-.5,.64-.33,1.22-.68,1.73-1.05,.51-.37,1.62-1.2,3.34-2.49Zm-12.07-15.41c-3.24,1.95-6.02,3.72-8.32,5.3-2.31,1.58-4.26,3.18-5.86,4.8-1.6,1.62-2.68,3.25-3.22,4.89-.98,4.38-1.46,6.74-1.46,7.09,0,2.58,1.8,3.87,5.39,3.87,1.68,0,4.49-1.44,8.44-4.34-.67-1.84-1-3.59-1-5.27,0-2.46,.51-4.97,1.52-7.53,1.02-2.56,2.52-5.5,4.51-8.82Z"/><path d="M146.37,207.74v3.93c-4.38,5.12-8.05,8.99-11.02,11.63-2.97,2.64-5.45,3.96-7.44,3.96s-3.64-.57-5.19-1.7c-1.54-1.13-2.93-2.7-4.16-4.69s-2.69-4.77-4.37-8.32c-1.99,2.46-3.79,4.76-5.39,6.88-1.6,2.13-2.72,3.54-3.34,4.25-.62,.7-1.19,1.05-1.7,1.05-1.05,0-1.82-.67-2.29-2.02s-.7-3.31-.7-5.89c0-3.52,.42-6.9,1.26-10.17,.84-3.26,2.05-6.44,3.63-9.52s3.61-6.42,6.09-9.99c2.48-3.57,5.26-7.31,8.35-11.22,4.26-5.39,7.93-9.79,11.02-13.21,3.08-3.42,5.77-6,8.06-7.73,2.29-1.74,4.19-2.61,5.71-2.61,1.88,0,2.81,.84,2.81,2.52,0,1.45-3.46,6.65-10.37,15.62s-16.99,21.2-30.23,36.71v5.04c8.87-9.49,16-16.54,21.42-21.15,5.41-4.61,9.6-6.91,12.57-6.91,1.21,0,2.15,.71,2.81,2.14,.66,1.43,1,3.08,1,4.95,0,3.83-1.64,7.37-4.92,10.63s-8.32,7-15.12,11.22c1.17,1.76,2.21,3.04,3.11,3.84,.9,.8,2.03,1.2,3.4,1.2,1.21,0,2.52-.41,3.93-1.23s2.84-1.85,4.31-3.11c1.46-1.25,3.72-3.28,6.77-6.09Zm-23.14,2.99c1.48-.98,3.33-2.49,5.54-4.54,2.21-2.05,4.09-4.18,5.65-6.39,1.56-2.21,2.34-4.05,2.34-5.54,0-.62-.27-.94-.82-.94-1.49,0-4.03,1.43-7.65,4.28-3.61,2.85-7.14,6.5-10.58,10.96,1.48,0,3.32,.72,5.51,2.17Z"/><path d="M152.87,197.25c5.94-5.39,11.7-9.39,17.29-12.01,5.59-2.62,9.9-3.93,12.95-3.93,.82,0,1.58,.34,2.29,1.03,.7,.68,1.26,1.48,1.67,2.37,.41,.9,.62,1.56,.62,1.99,0,.7-.27,1.22-.82,1.55-.55,.33-1.5,.73-2.87,1.2,.27,.62,.62,1.43,1.05,2.4,.43,.98,.76,1.77,1,2.37s.35,1.14,.35,1.61c0,.94-.95,2.69-2.84,5.24-1.9,2.56-3.22,4.44-3.98,5.65-.76,1.21-1.14,2.7-1.14,4.45,0,2.89,1.33,4.34,3.98,4.34s7.01-2.56,12.83-7.68v3.57c-9.88,10.98-16.95,16.46-21.21,16.46-1.52,0-2.61-.5-3.25-1.49s-.97-2.47-.97-4.42c0-3.08,1.11-7.56,3.34-13.42-5.7,6.33-9.94,10.83-12.72,13.51-2.77,2.68-5.06,4.01-6.86,4.01-.86,0-1.93-.74-3.22-2.23-1.29-1.48-2.43-3.41-3.43-5.77-1-2.36-1.49-4.81-1.49-7.35,0-1.84,.18-3.37,.53-4.6s1.03-2.49,2.05-3.78c1.02-1.29,2.64-2.99,4.86-5.1Zm28.07-6.45c-10.16,4.65-17.39,8.59-21.71,11.84-4.32,3.24-6.47,6.58-6.47,10.02,0,1.25,.21,2.28,.64,3.08,.43,.8,1.02,1.2,1.76,1.2,.43,0,1.19-.27,2.29-.82,4.1-2.42,7.85-5.58,11.25-9.46,3.4-3.89,7.48-9.17,12.25-15.85Z"/><path d="M240.29,203.52c6.99-11.45,12.22-20.46,15.67-27.04,3.46-6.58,5.19-10.77,5.19-12.57,0-.66-.23-1.21-.7-1.64-.47-.43-1.02-.64-1.64-.64-1.21,0-4.63,1.17-10.25,3.52-4.65,1.95-8.05,3.51-10.2,4.66-2.15,1.15-5.11,2.8-8.88,4.95-3.77,2.15-5.93,3.22-6.47,3.22-1.09,0-1.64-.76-1.64-2.29,0-2.89,1.9-6.78,5.68-11.66,3.79-4.88,8.89-9.16,15.29-12.83,.78-.51,1.17-.47,1.17,.12,0,.2-.47,.64-1.41,1.35s-1.77,1.42-2.49,2.14c-.72,.72-1.53,1.81-2.43,3.25,8.2-4.1,14.23-6.99,18.08-8.67,3.85-1.68,7.14-2.52,9.87-2.52,2.38,0,4.26,.5,5.62,1.49,1.37,1,2.05,2.43,2.05,4.31,0,1.64-.65,4.02-1.96,7.15-1.31,3.13-3.21,6.92-5.71,11.4-2.5,4.47-5.05,8.9-7.65,13.27-2.6,4.38-7.29,12.29-14.09,23.73,7.58-9.49,14.55-17.79,20.92-24.9,6.37-7.11,11.91-12.89,16.64-17.34,4.73-4.45,8.71-7.8,11.95-10.05,3.24-2.25,5.62-3.37,7.15-3.37,.55,0,1.19,.52,1.93,1.55,.74,1.04,1.41,2.3,1.99,3.78,.59,1.48,.88,2.7,.88,3.63,0,2.58-.65,5.14-1.96,7.68-1.31,2.54-3.25,5.59-5.83,9.14-7.34,9.92-12.71,17.73-16.08,23.44-3.38,5.7-5.07,10.29-5.07,13.77,0,2.62,1.37,3.93,4.1,3.93,1.25,0,2.71-.47,4.39-1.41,1.68-.94,3.69-2.38,6.04-4.34,2.34-1.95,4.71-4.08,7.09-6.39l.12,4.57c-3.36,3.44-6.37,6.38-9.02,8.82-2.66,2.44-5.17,4.58-7.53,6.42-2.36,1.84-4.48,3.22-6.36,4.16s-3.52,1.41-4.92,1.41c-2.03,0-3.66-.69-4.89-2.08-1.23-1.39-1.85-3.21-1.85-5.48,0-2.11,.46-4.66,1.38-7.65,.92-2.99,2.32-6.44,4.22-10.34,1.89-3.91,4.24-8.14,7.03-12.71,2.79-4.57,5.95-9.34,9.46-14.3,3.44-4.92,5.16-8.09,5.16-9.49,0-.82-.43-1.23-1.29-1.23-3.48,0-11.41,6.93-23.79,20.8-.78,.86-2.14,2.45-4.07,4.78s-3.91,4.79-5.92,7.41c-2.01,2.62-4.27,5.56-6.77,8.82-2.5,3.26-5.04,6.57-7.62,9.93-1.21,1.6-2.25,2.4-3.11,2.4-.94,0-2.17-.76-3.69-2.29s-2.29-2.64-2.29-3.34c0-.82,1.08-2.87,3.25-6.15s3.92-6.04,5.24-8.26Z"/><path d="M324.79,203.76c-5.66,7.5-9.97,12.83-12.92,16-2.95,3.16-5.36,4.75-7.24,4.75-1.49,0-2.85-.62-4.1-1.85-1.25-1.23-2.22-2.89-2.9-4.98-.68-2.09-1.03-4.33-1.03-6.71,0-1.56,.15-2.97,.44-4.22,.29-1.25,.85-2.63,1.67-4.13s1.9-3.13,3.25-4.89,3-3.75,4.95-5.98c1.17-1.37,2.16-2.52,2.96-3.46,.8-.94,1.58-1.57,2.34-1.9,.76-.33,2-.5,3.72-.5,1.25,0,2.44,.17,3.57,.5,1.13,.33,1.7,.67,1.7,1.03,0,.7-.58,1.97-1.73,3.81-1.15,1.84-3.01,4.07-5.57,6.71-2.56,2.64-5.52,5.22-8.88,7.76-.74,2.31-1.11,4.06-1.11,5.27,0,1.68,.64,2.52,1.93,2.52,.47,0,1.25-.4,2.34-1.2,1.09-.8,2.94-2.34,5.54-4.63,2.6-2.29,4.93-4.31,7-6.06,1.52-1.33,3.29-3.31,5.3-5.95,2.01-2.64,3.64-4.62,4.89-5.95,2.89-3.05,4.86-5.03,5.92-5.95,1.05-.92,2.07-1.38,3.05-1.38s1.57,.29,1.9,.88c.33,.59,.5,1.78,.5,3.57,0,.82-.08,1.48-.23,1.99-.16,.51-.48,1.16-.97,1.96-.49,.8-1.47,2.28-2.96,4.42-1.49,2.15-3.24,4.69-5.27,7.62-1.09,1.56-2.05,3.27-2.87,5.13-.82,1.86-1.23,3.25-1.23,4.19,0,2.03,.8,3.05,2.4,3.05,1.33,0,2.87-.55,4.63-1.64,1.76-1.09,4.45-3.07,8.09-5.92v3.93c-4.57,4.22-7.95,7.29-10.14,9.2-2.19,1.91-4.08,3.36-5.68,4.34-1.6,.98-3.13,1.46-4.57,1.46-3.28,0-4.92-1.95-4.92-5.86,0-1.48,.49-3.49,1.46-6.01,.98-2.52,2.56-6.16,4.75-10.93Z"/></g></svg>