<?xml version="1.0" encoding="UTF-8"?><svg id="a" xmlns="http://www.w3.org/2000/svg" xmlns:xlink="http://www.w3.org/1999/xlink" viewBox="0 0 319.86 354.61"><defs><style>.f{fill:url(#c);}.g{fill:url(#b);}.h{fill:url(#d);}.i{fill:url(#e);}</style><linearGradient id="b" x1="35.31" y1="92.35" x2="268.62" y2="92.35" gradientTransform="translate(0 372.4) scale(1 -1)" gradientUnits="userSpaceOnUse"><stop offset=".67" stop-color="#009245"/><stop offset=".73" stop-color="#34b24a"/><stop offset=".92" stop-color="#34b24a"/></linearGradient><linearGradient id="c" x1="38.28" y1="285.76" x2="265.82" y2="285.76" gradientTransform="translate(0 372.4) scale(1 -1)" gradientUnits="userSpaceOnUse"><stop offset="0" stop-color="#39b54a"/><stop offset=".36" stop-color="#159f47"/><stop offset=".5" stop-color="#0b8640"/><stop offset=".67" stop-color="#037039"/><stop offset=".78" stop-color="#006837"/></linearGradient><linearGradient id="d" x1="92.69" y1="244.32" x2="165.94" y2="244.32" gradientTransform="translate(0 372.4) scale(1 -1)" gradientUnits="userSpaceOnUse"><stop offset=".15" stop-color="#39b54a"/><stop offset=".31" stop-color="#34b24a"/><stop offset=".42" stop-color="#1ea547"/><stop offset=".56" stop-color="#089745"/><stop offset=".66" stop-color="#009245"/></linearGradient><linearGradient id="e" x1="161.15" y1="263.05" x2="200.69" y2="263.05" gradientTransform="translate(0 372.4) scale(1 -1)" gradientUnits="userSpaceOnUse"><stop offset=".15" stop-color="#39b54a"/><stop offset=".31" stop-color="#34b24a"/><stop offset=".42" stop-color="#1ea547"/><stop offset=".56" stop-color="#089745"/><stop offset=".66" stop-color="#009245"/></linearGradient></defs><path class="g" d="M265.43,252.69c-12.04,18.64-29.38,34.1-49.48,44.43-10.02,5.25-20.8,9.04-31.84,11.63l-4.15,.94c-1.39,.27-2.8,.46-4.2,.69l-4.21,.67c-1.41,.19-2.82,.29-4.24,.44l-4.24,.4c-1.42,.11-2.84,.11-4.26,.17l-4.26,.14c-1.42,.05-2.83-.04-4.24-.06-5.65-.07-11.3-.53-16.92-1.18l-4.21-.61c-1.4-.23-2.81-.35-4.2-.68-2.77-.59-5.57-1.1-8.32-1.77-11.01-2.72-21.74-6.79-31.62-12.38-2.43-1.47-4.87-2.9-7.26-4.41-2.31-1.63-4.67-3.2-6.92-4.91-2.17-1.81-4.39-3.56-6.51-5.41-2.04-1.95-4.14-3.83-6.1-5.83-7.78-8.11-14.42-17.23-19.54-27.07,6.62,8.89,13.95,17.14,22.24,24.22,2.07,1.76,4.23,3.43,6.32,5.14,2.18,1.62,4.43,3.13,6.64,4.69l6.89,4.26c2.36,1.3,4.77,2.53,7.14,3.8,9.7,4.7,19.93,8.23,30.44,10.52,2.63,.55,5.29,1.01,7.93,1.52,1.31,.29,2.67,.38,4,.58l4.01,.52c5.36,.58,10.74,.99,16.14,1.03,21.51,.51,43.06-3.73,62.78-12.63,19.73-8.87,37.51-22.22,52.19-38.83v-.02Z"/><path class="f" d="M41.64,117.33c5.15-9.56,11.78-18.39,19.54-26.2,2.01-1.88,4.01-3.77,6.07-5.61,2.15-1.72,4.26-3.52,6.46-5.19,2.26-1.59,4.5-3.23,6.84-4.7l3.56-2.14c1.2-.7,2.36-1.47,3.61-2.07,9.74-5.35,20.31-9.12,31.11-11.71,10.82-2.54,21.94-3.71,33.02-3.75,22.2-.04,44.58,5.23,64.02,15.97,19.47,10.59,35.87,26.53,46.64,45.39-13.53-16.95-30.42-30.73-49.5-39.84-9.55-4.51-19.56-7.96-29.83-10.19l-3.87-.77c-1.29-.25-2.57-.56-3.88-.7l-3.91-.55c-1.3-.16-2.6-.42-3.91-.48-2.62-.2-5.24-.49-7.86-.63l-7.89-.2c-21.09,.04-42.22,3.97-61.32,13.01-9.52,4.52-18.55,10.2-26.72,17.04-8.25,6.77-15.55,14.72-22.18,23.31h0Z"/><path class="h" d="M165.94,150.96s-3.23-55.41-73.25-54.09c0,0,16.98,76.62,71.9,60.11l-46.8-40.29"/><path class="i" d="M161.25,128.22s-4.1-34.7,39.44-41.58c0,0-2.09,49.36-37.95,45.17l24.57-30.12"/><path d="M.23,82.89c12.86-22.79,31.81-42.47,54.05-56.4C99.49-1.47,157.28-6.92,207.83,8.37c3.22,.84,7.56,2.64,10.75,3.7,3.18,1.04,7.37,3.1,10.5,4.36,1.75,.71,3.42,1.63,5.11,2.49,2.89,1.49,7.26,3.65,9.98,5.4l4.88,2.9,1.22,.72c1.14,.73,2.46,1.69,3.52,2.39,2.6,1.77,6.75,4.62,9.16,6.66,16.31,12.54,30.46,28.33,40.96,45.9-15.22-19.89-33.92-36.7-55.44-49.34C206.68,8.91,155.48,2.54,108.29,12.44,64.87,21.05,25.95,46.84,.23,82.89h0Z"/><path d="M303.91,276.26c-33.3,50.09-94.08,80.13-154.18,78.27-41.34-.55-83.32-13.66-114.66-41.25-14.01-12.31-25.99-27.19-34.84-43.47,12.81,18.15,28.35,33.91,46.63,46.33,30.21,20.38,66.76,30.01,103.03,30.4,58.84,1.84,116.12-25.19,154.02-70.28h0Z"/><g><path d="M71.37,232.94c-.47,0-1.16-.25-2.08-.76-.92-.51-2.25-1.38-3.98-2.61-1.74-1.23-3.7-2.59-5.89-4.07l-31.7-21.27-9.38,12.36c0,1.05-.14,1.85-.41,2.37-.27,.53-.86,1.26-1.76,2.2-2.15,2.23-3.98,3.93-5.48,5.1-1.5,1.17-2.86,1.76-4.07,1.76-.59,0-1.09-.24-1.52-.73-.43-.49-.64-1.08-.64-1.79,0-.94,.55-2.19,1.64-3.75l17.17-21.33c-1.02-1.6-1.52-3.24-1.52-4.92s.48-3.18,1.44-4.39c.96-1.21,2.06-2.19,3.31-2.93,1.25-.74,4.71-2.62,10.37-5.62,8.05-10.66,12.07-16.64,12.07-17.93,0-.86-.51-1.29-1.52-1.29s-3.39,.63-7,1.88c-3.61,1.25-8.36,3.17-14.24,5.77-5.88,2.6-12.84,5.93-20.89,9.99-.66,.35-1.42,.5-2.26,.44-.84-.06-1.55-.39-2.14-1-.59-.6-.88-1.42-.88-2.43,0-.31,.07-.68,.21-1.11,.14-.43,.36-1.1,.67-2.02,.31-.92,.59-1.73,.82-2.43,.08-.23,.26-1.07,.56-2.52,.29-1.44,.79-2.76,1.49-3.96,.7-1.19,1.9-2.51,3.6-3.96,1.7-1.44,4.13-2.97,7.29-4.57,.59-.35,1.13-.58,1.64-.67,.51-.1,.76,.05,.76,.44,0,.12-.58,.6-1.73,1.44-1.15,.84-2.41,2.22-3.78,4.13,11.41-3.98,19.81-6.79,25.22-8.41,5.41-1.62,9.76-2.43,13.04-2.43,1.8,0,3.3,1.22,4.51,3.66,1.21,2.44,1.82,4.03,1.82,4.78,0,1.09-.43,2.32-1.29,3.69l-9.38,14.06c7.42-3.67,13.19-6.59,17.31-8.76,4.12-2.17,8.6-4.53,13.45-7.09,4.84-2.56,7.91-4.16,9.2-4.8s2.13-.97,2.52-.97c.9,0,1.35,.41,1.35,1.23,0,.47-.67,1.75-2.02,3.84-1.35,2.09-2.84,3.97-4.48,5.62-1.64,1.66-3.01,2.49-4.1,2.49-.27,0-.61-.07-1-.21-.39-.14-.76-.26-1.11-.38-5.27,2.73-11.73,5.98-19.37,9.73-7.64,3.75-13.66,6.68-18.08,8.79l-5.04,7.56,29.71,20.16c2.73,1.84,4.72,3.3,5.95,4.39,1.23,1.09,2.15,2.29,2.75,3.57,.61,1.29,.91,2.91,.91,4.86,0,3.2-.68,4.8-2.05,4.8Z"/><path d="M115.96,207.62v3.93c-2.58,2.34-4.65,3.91-6.21,4.69-1.56,.78-3.81,1.09-6.74,.94-5.08,6.02-9.55,9.02-13.42,9.02-2.19,0-4.18-.72-5.98-2.17-1.8-1.44-3.23-3.42-4.31-5.92-1.08-2.5-1.61-5.29-1.61-8.38,0-2.5,.83-5.27,2.49-8.32,1.66-3.05,3.81-5.89,6.45-8.53s5.46-4.77,8.47-6.39c3.01-1.62,5.8-2.43,8.38-2.43,1.84,0,3.28,.28,4.34,.85,1.05,.57,1.58,1.36,1.58,2.37,0,.78-.45,1.68-1.35,2.7,1.48,.31,2.5,.83,3.05,1.55,.55,.72,.82,2.04,.82,3.96s-.44,4.24-1.32,7.09-2.08,5.53-3.6,8.03l1.05,1.05h.88c.66,0,1.32-.17,1.96-.5,.64-.33,1.22-.68,1.73-1.05,.51-.37,1.62-1.2,3.34-2.49Zm-12.07-15.41c-3.24,1.95-6.02,3.72-8.32,5.3-2.31,1.58-4.26,3.18-5.86,4.8-1.6,1.62-2.68,3.25-3.22,4.89-.98,4.38-1.46,6.74-1.46,7.09,0,2.58,1.8,3.87,5.39,3.87,1.68,0,4.49-1.44,8.44-4.34-.67-1.84-1-3.59-1-5.27,0-2.46,.51-4.97,1.52-7.53,1.02-2.56,2.52-5.5,4.51-8.82Z"/><path d="M155.33,197.14c-6.88,7.66-10.31,12.99-10.31,16,0,1.68,.68,2.52,2.05,2.52,1.13,0,2.61-.59,4.42-1.79,1.82-1.19,4.66-3.31,8.53-6.36v4.04c-5.55,5.47-9.81,9.41-12.77,11.84-2.97,2.42-5.39,3.63-7.27,3.63-3.2,0-4.8-2.11-4.8-6.33,0-1.25,.2-2.48,.59-3.69,.39-1.21,.93-2.47,1.61-3.78,.68-1.31,1.73-3.18,3.14-5.62,1.41-2.44,3.03-5.21,4.86-8.29-2.23,1.13-5.02,3.38-8.38,6.74-2.19,2.11-4.04,4.11-5.57,6.01-1.52,1.9-3.16,4-4.89,6.33-1.74,2.32-3.01,3.89-3.81,4.69s-1.61,1.2-2.43,1.2c-1.25,0-2.4-1.31-3.46-3.93-1.05-2.62-1.58-5.66-1.58-9.14,0-2.15,.24-3.83,.73-5.04,.49-1.21,1.46-2.93,2.9-5.16,2.7-4.14,5.02-7.18,6.97-9.11,1.95-1.93,3.83-2.9,5.62-2.9,1.25,0,2.26,.21,3.02,.64s1.14,1.09,1.14,1.99c0,.39-.12,.8-.35,1.23s-.5,.82-.79,1.17-.91,1.04-1.85,2.05c-6.17,6.84-9.26,11.27-9.26,13.3,0,1.13,.37,1.7,1.11,1.7,.47,0,1.38-.75,2.72-2.26,1.35-1.5,3.08-3.48,5.21-5.92,2.13-2.44,4.65-4.99,7.56-7.65,2.91-2.66,6.22-5.21,9.93-7.68,2.07-1.44,3.79-2.17,5.16-2.17,.62,0,1.24,.86,1.85,2.58,.61,1.72,.91,3.46,.91,5.21,0,.86-.84,2.17-2.52,3.93Z"/><path d="M180.23,177.33h2.52c2.07-3.71,3.95-6.34,5.62-7.88,1.68-1.54,3.59-2.31,5.74-2.31s3.22,.49,3.22,1.46c0,.47-.84,1.74-2.52,3.81-1.68,2.07-2.95,3.81-3.81,5.21,1.33,.16,2.51,.29,3.54,.41,1.03,.12,1.85,.22,2.43,.29-2.23,4.14-5.02,8.38-8.38,12.71-1.09-.08-2.01-.15-2.75-.21-.74-.06-1.49-.12-2.26-.18s-1.69-.13-2.78-.21c-2.11,3.4-3.88,6.44-5.3,9.11-1.43,2.68-2.52,5.13-3.28,7.35s-1.14,4.34-1.14,6.33c0,2.7,1.07,4.04,3.22,4.04,1.48,0,3.43-.79,5.83-2.37s5.62-4.01,9.64-7.29v3.93c-10.55,11.45-18.34,17.17-23.38,17.17-1.76,0-3.17-.68-4.25-2.05-1.08-1.37-1.61-3.12-1.61-5.27,0-1.44,.3-3.16,.91-5.16,.61-1.99,1.69-5,3.25-9.02-.55,.47-1.06,.93-1.55,1.38-.49,.45-.94,.86-1.35,1.23-.41,.37-.85,.76-1.32,1.17s-.94,.83-1.41,1.26v-4.04c4.1-3.44,9.06-9.47,14.88-18.11-.59-.04-1.13-.07-1.64-.09-.51-.02-1.11-.03-1.82-.03-2.31,0-4.02,.16-5.16,.47-.47,.12-.91,.24-1.32,.38s-.69,.21-.85,.21-.23-.12-.23-.35c0-1.29,.8-3.22,2.4-5.8,1.29-2.19,2.51-3.81,3.66-4.86,1.15-1.05,2.56-1.77,4.22-2.14,1.66-.37,3.99-.56,7-.56Z"/><path d="M196.52,197.25c5.94-5.39,11.7-9.39,17.29-12.01,5.59-2.62,9.9-3.93,12.95-3.93,.82,0,1.58,.34,2.29,1.03,.7,.68,1.26,1.48,1.67,2.37,.41,.9,.62,1.56,.62,1.99,0,.7-.27,1.22-.82,1.55-.55,.33-1.5,.73-2.87,1.2,.27,.62,.62,1.43,1.05,2.4,.43,.98,.76,1.77,1,2.37s.35,1.14,.35,1.61c0,.94-.95,2.69-2.84,5.24-1.9,2.56-3.22,4.44-3.98,5.65-.76,1.21-1.14,2.7-1.14,4.45,0,2.89,1.33,4.34,3.98,4.34s7.01-2.56,12.83-7.68v3.57c-9.88,10.98-16.95,16.46-21.21,16.46-1.52,0-2.61-.5-3.25-1.49s-.97-2.47-.97-4.42c0-3.08,1.11-7.56,3.34-13.42-5.7,6.33-9.94,10.83-12.71,13.51-2.77,2.68-5.06,4.01-6.86,4.01-.86,0-1.93-.74-3.22-2.23-1.29-1.48-2.43-3.41-3.43-5.77-1-2.36-1.49-4.81-1.49-7.35,0-1.84,.18-3.37,.53-4.6s1.03-2.49,2.05-3.78c1.02-1.29,2.64-2.99,4.86-5.1Zm28.07-6.45c-10.16,4.65-17.39,8.59-21.71,11.84-4.32,3.24-6.47,6.58-6.47,10.02,0,1.25,.21,2.28,.64,3.08,.43,.8,1.02,1.2,1.76,1.2,.43,0,1.19-.27,2.29-.82,4.1-2.42,7.85-5.58,11.25-9.46,3.4-3.89,7.48-9.17,12.25-15.85Z"/><path d="M282.54,207.74v3.93c-4.38,5.12-8.05,8.99-11.02,11.63-2.97,2.64-5.45,3.96-7.44,3.96s-3.64-.57-5.19-1.7c-1.54-1.13-2.93-2.7-4.16-4.69s-2.69-4.77-4.37-8.32c-1.99,2.46-3.79,4.76-5.39,6.88-1.6,2.13-2.72,3.54-3.34,4.25-.62,.7-1.19,1.05-1.7,1.05-1.05,0-1.82-.67-2.29-2.02s-.7-3.31-.7-5.89c0-3.52,.42-6.9,1.26-10.17,.84-3.26,2.05-6.44,3.63-9.52s3.61-6.42,6.09-9.99c2.48-3.57,5.26-7.31,8.35-11.22,4.26-5.39,7.93-9.79,11.02-13.21,3.08-3.42,5.77-6,8.06-7.73,2.29-1.74,4.19-2.61,5.71-2.61,1.88,0,2.81,.84,2.81,2.52,0,1.45-3.46,6.65-10.37,15.62s-16.99,21.2-30.23,36.71v5.04c8.87-9.49,16-16.54,21.42-21.15,5.41-4.61,9.6-6.91,12.57-6.91,1.21,0,2.15,.71,2.81,2.14,.66,1.43,1,3.08,1,4.95,0,3.83-1.64,7.37-4.92,10.63s-8.32,7-15.12,11.22c1.17,1.76,2.21,3.04,3.11,3.84,.9,.8,2.03,1.2,3.4,1.2,1.21,0,2.52-.41,3.93-1.23s2.84-1.85,4.31-3.11c1.46-1.25,3.72-3.28,6.77-6.09Zm-23.14,2.99c1.48-.98,3.33-2.49,5.54-4.54,2.21-2.05,4.09-4.18,5.65-6.39,1.56-2.21,2.34-4.05,2.34-5.54,0-.62-.27-.94-.82-.94-1.49,0-4.03,1.43-7.65,4.28-3.61,2.85-7.14,6.5-10.58,10.96,1.48,0,3.32,.72,5.51,2.17Z"/><path d="M302.75,177.33h2.52c2.07-3.71,3.95-6.34,5.62-7.88,1.68-1.54,3.59-2.31,5.74-2.31s3.22,.49,3.22,1.46c0,.47-.84,1.74-2.52,3.81-1.68,2.07-2.95,3.81-3.81,5.21,1.33,.16,2.51,.29,3.54,.41,1.03,.12,1.85,.22,2.43,.29-2.23,4.14-5.02,8.38-8.38,12.71-1.09-.08-2.01-.15-2.75-.21-.74-.06-1.49-.12-2.26-.18s-1.69-.13-2.78-.21c-2.11,3.4-3.88,6.44-5.3,9.11-1.43,2.68-2.52,5.13-3.28,7.35s-1.14,4.34-1.14,6.33c0,2.7,1.07,4.04,3.22,4.04,1.48,0,3.43-.79,5.83-2.37s5.62-4.01,9.64-7.29v3.93c-10.55,11.45-18.34,17.17-23.38,17.17-1.76,0-3.17-.68-4.25-2.05-1.08-1.37-1.61-3.12-1.61-5.27,0-1.44,.3-3.16,.91-5.16,.61-1.99,1.69-5,3.25-9.02-.55,.47-1.06,.93-1.55,1.38-.49,.45-.94,.86-1.35,1.23-.41,.37-.85,.76-1.32,1.17s-.94,.83-1.41,1.26v-4.04c4.1-3.44,9.06-9.47,14.88-18.11-.59-.04-1.13-.07-1.64-.09-.51-.02-1.11-.03-1.82-.03-2.31,0-4.02,.16-5.16,.47-.47,.12-.91,.24-1.32,.38s-.69,.21-.85,.21-.23-.12-.23-.35c0-1.29,.8-3.22,2.4-5.8,1.29-2.19,2.51-3.81,3.66-4.86,1.15-1.05,2.56-1.77,4.22-2.14,1.66-.37,3.99-.56,7-.56Z"/></g></svg>