<?xml version="1.0" encoding="UTF-8"?><svg id="a" xmlns="http://www.w3.org/2000/svg" xmlns:xlink="http://www.w3.org/1999/xlink" viewBox="0 0 589.36 397.46"><defs><style>.f{fill:#fff;}.g{fill:url(#c);}.h{fill:url(#b);}.i{fill:url(#d);}.j{fill:url(#e);}</style><linearGradient id="b" x1="191.2" y1="311.81" x2="424.51" y2="311.81" gradientTransform="matrix(1, 0, 0, 1, 0, 0)" gradientUnits="userSpaceOnUse"><stop offset=".67" stop-color="#009245"/><stop offset=".73" stop-color="#34b24a"/><stop offset=".92" stop-color="#34b24a"/></linearGradient><linearGradient id="c" x1="194.16" y1="76.3" x2="421.7" y2="76.3" gradientTransform="matrix(1, 0, 0, 1, 0, 0)" gradientUnits="userSpaceOnUse"><stop offset="0" stop-color="#39b54a"/><stop offset=".36" stop-color="#159f47"/><stop offset=".5" stop-color="#0b8640"/><stop offset=".67" stop-color="#037039"/><stop offset=".78" stop-color="#006837"/></linearGradient><linearGradient id="d" x1="248.58" y1="144.37" x2="321.82" y2="144.37" gradientTransform="matrix(1, 0, 0, 1, 0, 0)" gradientUnits="userSpaceOnUse"><stop offset=".15" stop-color="#39b54a"/><stop offset=".31" stop-color="#34b24a"/><stop offset=".42" stop-color="#1ea547"/><stop offset=".56" stop-color="#089745"/><stop offset=".66" stop-color="#009245"/></linearGradient><linearGradient id="e" x1="317.02" y1="125.63" x2="356.57" y2="125.63" xlink:href="#d"/></defs><path class="h" d="M421.32,284.45c-12.04,18.64-29.38,34.1-49.48,44.43-10.02,5.25-20.8,9.04-31.84,11.63l-4.15,.94c-1.39,.27-2.8,.46-4.2,.69l-4.21,.67c-1.41,.19-2.82,.29-4.24,.44l-4.24,.4c-1.42,.11-2.84,.11-4.26,.17l-4.26,.14c-1.42,.05-2.83-.04-4.24-.06-5.65-.07-11.3-.53-16.92-1.18l-4.21-.61c-1.4-.23-2.81-.35-4.2-.68-2.77-.59-5.57-1.1-8.32-1.77-11.01-2.72-21.74-6.79-31.62-12.38-2.43-1.47-4.87-2.9-7.26-4.41-2.31-1.63-4.67-3.2-6.92-4.91-2.17-1.81-4.39-3.56-6.51-5.41-2.04-1.95-4.14-3.83-6.1-5.83-7.78-8.11-14.42-17.23-19.54-27.07,6.62,8.89,13.95,17.14,22.24,24.22,2.07,1.76,4.23,3.43,6.32,5.14,2.18,1.62,4.43,3.13,6.64,4.69l6.89,4.26c2.36,1.3,4.77,2.53,7.14,3.8,9.7,4.7,19.93,8.23,30.44,10.52,2.63,.55,5.29,1.01,7.93,1.52,1.31,.29,2.67,.38,4,.58l4.01,.52c5.36,.58,10.74,.99,16.14,1.03,21.51,.51,43.06-3.73,62.78-12.63,19.73-8.87,37.51-22.22,52.19-38.83Z"/><path class="g" d="M197.52,106.97c5.15-9.56,11.78-18.39,19.54-26.2,2.01-1.88,4.01-3.77,6.07-5.61,2.15-1.72,4.26-3.52,6.46-5.19,2.26-1.59,4.5-3.23,6.84-4.7l3.56-2.14c1.2-.7,2.36-1.47,3.61-2.07,9.74-5.35,20.31-9.12,31.11-11.71,10.82-2.54,21.94-3.71,33.02-3.75,22.2-.04,44.58,5.23,64.02,15.97,19.47,10.59,35.87,26.53,46.64,45.39-13.53-16.95-30.42-30.73-49.5-39.84-9.55-4.51-19.56-7.96-29.83-10.19l-3.87-.77c-1.29-.25-2.57-.56-3.88-.7l-3.91-.55c-1.3-.16-2.6-.42-3.91-.48-2.62-.2-5.24-.49-7.86-.63l-7.89-.2c-21.09,.04-42.22,3.97-61.32,13.01-9.52,4.52-18.55,10.2-26.72,17.04-8.25,6.77-15.55,14.72-22.18,23.31Z"/><g><g><path class="f" d="M140.13,161.23v4.92c0,2.03-.47,3.31-1.42,3.84-.94,.53-4.41,1.96-10.38,4.27-5.98,2.32-11.71,5.05-17.2,8.18,2.12-2.61,4.05-4.54,5.79-5.79,1.74-1.25,4.1-2.82,7.08-4.71-2.57-.87-6.15-1.3-10.72-1.3-7.09,0-14.74,1.18-22.95,3.55-8.21,2.37-15.19,5.19-20.93,8.47-5.75,3.28-8.62,6.04-8.62,8.26,0,1.16,.87,2.11,2.62,2.86,1.74,.75,4.55,1.33,8.41,1.74,3.86,.41,8.68,.69,14.46,.83,5.78,.15,12.9,.22,21.36,.22,6.18,0,10.15,.19,11.93,.58,1.77,.39,2.66,1.28,2.66,2.68,0,1.79-1.04,3.83-3.13,6.12-2.09,2.29-4.85,3.66-8.28,4.09-5.32,.72-9.55,1.34-12.7,1.85-3.15,.51-6.88,1.36-11.2,2.57-4.32,1.21-9.11,2.95-14.37,5.21-7.84,3.48-13.96,7-18.36,10.57-4.41,3.57-6.61,6.74-6.61,9.49,0,2.37,1.57,4.21,4.72,5.54,3.15,1.33,7.66,1.99,13.56,1.99,20.3,0,40.98-7.7,62.03-23.1,.11,4.73-.5,8.9-1.84,12.49-1.34,3.6-4.08,7.04-8.19,10.32-3.43,2.75-8.45,5.38-15.06,7.89-6.61,2.51-13.81,4.51-21.62,6.01-7.81,1.5-15.14,2.25-22.01,2.25-7.95,0-14.53-1.61-19.73-4.82-5.21-3.21-7.81-7.47-7.81-12.78,0-3.86,1.26-7.7,3.78-11.51,2.52-3.81,6.38-7.47,11.58-10.97,5.2-3.5,11.8-6.67,19.78-9.52s17.17-5.09,27.58-6.74c1.49-.24,2.23-.63,2.23-1.16,0-.58-.87-.93-2.62-1.05-1.75-.12-4.95-.2-9.61-.25-4.66-.05-8.77-.22-12.31-.51-3.55-.29-7.29-.92-11.24-1.88-4.06-1.06-7.19-2.92-9.4-5.58-2.2-2.65-3.3-5.6-3.3-8.84,0-4.15,1.77-8.33,5.32-12.53,3.55-4.2,8.55-7.99,15.01-11.37,6.46-3.38,14.29-6.1,23.47-8.15,9.18-2.05,19.23-3.08,30.16-3.08,6.29,0,10.68,.3,13.17,.91,2.49,.6,3.93,1.4,4.33,2.39,.4,.99,.6,2.84,.6,5.54Z"/><path class="f" d="M145.28,216.71c8.69-6.66,17.13-11.61,25.31-14.85,8.18-3.23,14.5-4.85,18.96-4.85,1.2,0,2.32,.42,3.35,1.27,1.03,.85,1.84,1.82,2.45,2.93,.6,1.11,.9,1.93,.9,2.46,0,.87-.4,1.51-1.2,1.92-.8,.41-2.2,.91-4.2,1.48,.4,.77,.91,1.76,1.54,2.97,.63,1.21,1.12,2.18,1.46,2.93,.34,.75,.52,1.41,.52,1.99,0,1.16-1.39,3.32-4.16,6.48-2.78,3.16-4.72,5.49-5.83,6.99-1.12,1.5-1.67,3.33-1.67,5.5,0,3.57,1.94,5.36,5.83,5.36s10.27-3.16,18.79-9.49v4.42c-14.47,13.57-24.82,20.35-31.06,20.35-2.23,0-3.82-.62-4.76-1.85-.94-1.23-1.42-3.05-1.42-5.47,0-3.81,1.63-9.34,4.89-16.58-8.35,7.82-14.56,13.39-18.62,16.69-4.06,3.31-7.41,4.96-10.04,4.96-1.26,0-2.83-.92-4.72-2.75s-3.56-4.21-5.02-7.13-2.19-5.95-2.19-9.09c0-2.27,.26-4.16,.77-5.69,.51-1.52,1.51-3.08,3-4.67,1.49-1.59,3.86-3.69,7.12-6.3Zm41.1-7.97c-14.87,5.75-25.47,10.62-31.79,14.63-6.32,4.01-9.48,8.14-9.48,12.38,0,1.55,.31,2.81,.94,3.8,.63,.99,1.49,1.48,2.57,1.48,.63,0,1.74-.34,3.35-1.01,6.01-2.99,11.5-6.89,16.47-11.7,4.98-4.8,10.95-11.33,17.93-19.59Z"/><path class="f" d="M236.65,192.09h3.69c3.03-4.59,5.78-7.83,8.24-9.74,2.46-1.91,5.26-2.86,8.41-2.86s4.72,.6,4.72,1.81c0,.58-1.23,2.15-3.69,4.71-2.46,2.56-4.32,4.71-5.58,6.45,1.94,.19,3.67,.36,5.19,.51,1.52,.15,2.7,.27,3.56,.36-3.26,5.12-7.35,10.36-12.27,15.72-1.6-.1-2.95-.18-4.03-.25-1.09-.07-2.19-.15-3.3-.22s-2.47-.16-4.08-.25c-3.09,4.2-5.68,7.96-7.76,11.26-2.09,3.31-3.69,6.34-4.8,9.09-1.12,2.75-1.67,5.36-1.67,7.82,0,3.33,1.57,5,4.72,5,2.17,0,5.02-.98,8.54-2.93,3.52-1.96,8.22-4.96,14.11-9.02v4.85c-15.44,14.15-26.85,21.22-34.23,21.22-2.57,0-4.65-.85-6.22-2.54-1.57-1.69-2.36-3.86-2.36-6.52,0-1.79,.44-3.91,1.33-6.37,.89-2.46,2.47-6.18,4.76-11.15-.8,.58-1.56,1.15-2.27,1.7-.72,.56-1.37,1.06-1.97,1.52s-1.24,.94-1.93,1.45c-.69,.51-1.37,1.03-2.06,1.56v-5c6.01-4.25,13.27-11.71,21.79-22.38-.86-.05-1.66-.08-2.4-.11-.74-.02-1.63-.04-2.66-.04-3.38,0-5.89,.19-7.55,.58-.69,.14-1.33,.3-1.93,.47-.6,.17-1.02,.25-1.24,.25s-.34-.14-.34-.43c0-1.59,1.17-3.98,3.52-7.17,1.89-2.7,3.67-4.71,5.36-6.01,1.69-1.3,3.75-2.18,6.18-2.64,2.43-.46,5.85-.69,10.25-.69Z"/><path class="f" d="M329.74,251.91c-4.06,0-7.98-1.06-11.75-3.19-3.77-2.12-6.81-5.07-9.09-8.84-2.29-3.77-3.43-7.97-3.43-12.6,0-6.18,2.79-11.8,8.37-16.88,5.58-5.07,13.8-10.07,24.67-14.99-.57-3.04-.86-5.19-.86-6.45,0-4.88,1.21-9.46,3.65-13.76,2.43-4.3,5.59-7.95,9.48-10.97,3.89-3.02,8.01-5.33,12.36-6.95,4.35-1.62,8.49-2.43,12.44-2.43,4.58,0,8.26,.93,11.07,2.79,2.8,1.86,4.2,4.26,4.2,7.21,0,3.91-1.19,7.41-3.56,10.5-2.37,3.09-5.41,5.85-9.09,8.29-3.69,2.44-8.22,5.07-13.6,7.89-5.38,2.82-8.64,4.6-9.78,5.32,1.83,6.08,4.6,12.31,8.32,18.69,5.15-2.94,9.18-5.59,12.1-7.93,2.92-2.34,5.38-4.5,7.38-6.48,2-1.98,3.35-2.97,4.03-2.97,.52,0,.94,.53,1.29,1.59,.34,1.06,.51,2.22,.51,3.48,0,2.95-.63,5.72-1.89,8.33-1.26,2.61-3.05,5.21-5.36,7.82-2.32,2.61-5.19,5.38-8.62,8.33l5.66,5.21c.52-.39,1.14-.94,1.89-1.67,.74-.72,1.32-1.22,1.72-1.48,.4-.26,.83-.4,1.29-.4,.57,0,1.01,.19,1.33,.58,.31,.39,.47,.82,.47,1.3,0,1.98-1.66,5.3-4.98,9.96-3.32,4.66-6.06,6.99-8.24,6.99-1.14,0-2.26-.4-3.35-1.19-1.09-.8-2.4-2.08-3.95-3.84-1.54-1.76-2.8-3.25-3.78-4.45-6.58,4.25-12.43,7.51-17.55,9.78-5.12,2.27-9.57,3.4-13.34,3.4Zm11.58-47c-4.23,2.46-7.99,5.12-11.28,7.97-3.29,2.85-5.89,5.61-7.81,8.29-1.92,2.68-2.87,4.91-2.87,6.7,0,3.57,1.92,5.36,5.75,5.36,2.8,0,6.61-.78,11.41-2.35s9.61-3.85,14.41-6.84c-2.52-4.92-5.72-11.3-9.61-19.12Zm11.58-21.65v2.97c8.24-3.91,14.63-8.04,19.18-12.38,4.55-4.35,6.82-7.8,6.82-10.36,0-2.17-1.29-3.26-3.86-3.26-2.35,0-5.32,1.17-8.92,3.51-3.6,2.34-6.71,5.29-9.31,8.84-2.6,3.55-3.9,7.11-3.9,10.68Z"/><path class="f" d="M534.63,229.39v3.84c-6.52,4.63-12.98,9.07-19.39,13.29-6.41,4.23-14.19,8.94-23.34,14.16-4.69,5.41-8.72,9.84-12.1,13.29-3.38,3.45-6.29,6.31-8.75,8.58-2.46,2.27-3.72,3.43-3.78,3.48-.8,.82-2.14,1.64-4.03,2.46-1.89,.82-3.46,1.23-4.72,1.23-1.77,0-3.25-.54-4.42-1.63-1.17-1.09-1.76-2.38-1.76-3.88,0-3.86,2.4-7.98,7.21-12.35s11.84-8.85,21.11-13.43c4.58-5.55,8.95-11.14,13.13-16.77,4.17-5.62,7.82-10.75,10.94-15.39,3.12-4.63,5.99-9.2,8.62-13.69-4.12,2.9-8.21,5.68-12.27,8.36-4.06,2.68-8.04,5.24-11.93,7.68-3.89,2.44-6.29,3.95-7.21,4.53-.92,.58-1.72,1.09-2.4,1.52-9.95,7.34-17.39,11.01-22.31,11.01s-8.64-1.88-11.84-5.65c-3.2-3.77-4.8-8.52-4.8-14.27,0-3.62,.69-7.4,2.06-11.33,1.37-3.93,3.48-7.98,6.31-12.13,2.83-4.15,6.22-8.16,10.17-12.02,3.95-3.86,8.29-7.41,13.04-10.65,7.32-4.92,15.53-9.33,24.62-13.22,9.09-3.89,17.56-6.86,25.4-8.91,7.84-2.05,13.61-3.08,17.33-3.08,2.17,0,3.9,.45,5.19,1.34,1.29,.89,2.2,2.1,2.75,3.62,.54,1.52,.82,3.13,.82,4.82,0,1.55-.57,3.09-1.72,4.64-1.66,2.08-4.58,4.26-8.75,6.55-4.18,2.29-8.38,4.32-12.61,6.08-4.23,1.76-6.66,2.64-7.29,2.64-.34,0-.51-.1-.51-.29,0-.43,.66-1.13,1.97-2.1,1.32-.97,2.77-1.96,4.38-2.97,3.55-2.27,5.63-4.68,6.26-7.24-5.55,1.3-11.07,3.02-16.56,5.14-5.49,2.12-10.93,4.66-16.3,7.6-5.38,2.95-10.75,6.3-16.13,10.07-6.06,4.3-11.23,8.78-15.49,13.43-4.26,4.66-7.49,8.97-9.7,12.93-2.2,3.96-3.3,7-3.3,9.12,0,1.59,.6,2.98,1.8,4.17,1.2,1.18,2.83,1.77,4.89,1.77,2.4,0,5.38-.89,8.92-2.68,3.83-1.93,8.05-4.41,12.66-7.42,4.6-3.02,8.85-5.88,12.74-8.58,3.89-2.7,8.09-5.67,12.61-8.91,4.17-2.94,7.42-5.32,9.74-7.13s4.05-3.39,5.19-4.74c2.4-2.8,4.79-4.42,7.16-4.85,2.37-.43,4.4-.04,6.09,1.2,1.69,1.23,2.53,2.74,2.53,4.53,0,.58-1.24,2.84-3.73,6.77-2.49,3.94-6.29,9.63-11.41,17.09-5.12,7.46-11.43,16.26-18.92,26.4,6.63-2.99,17.25-9,31.83-18.03Z"/><path class="f" d="M589.36,229.53v4.85c-3.77,2.9-6.81,4.83-9.09,5.79-2.29,.97-5.58,1.35-9.87,1.16-7.44,7.44-13.98,11.15-19.65,11.15-3.2,0-6.12-.89-8.75-2.68-2.63-1.79-4.73-4.22-6.31-7.31-1.57-3.09-2.36-6.54-2.36-10.36,0-3.09,1.21-6.52,3.65-10.28,2.43-3.77,5.58-7.28,9.44-10.54,3.86-3.26,7.99-5.89,12.4-7.9,4.4-2,8.49-3.01,12.27-3.01,2.69,0,4.8,.35,6.35,1.05,1.54,.7,2.32,1.68,2.32,2.93,0,.97-.66,2.08-1.97,3.33,2.17,.39,3.66,1.03,4.46,1.92,.8,.89,1.2,2.52,1.2,4.89s-.64,5.24-1.93,8.76c-1.29,3.52-3.05,6.83-5.28,9.92l1.54,1.3h1.29c.97,0,1.93-.21,2.87-.62,.94-.41,1.79-.84,2.53-1.3,.74-.46,2.37-1.48,4.89-3.08Zm-17.67-19.05c-4.75,2.42-8.81,4.6-12.18,6.55-3.38,1.96-6.23,3.94-8.58,5.94-2.35,2-3.92,4.02-4.72,6.05-1.43,5.41-2.15,8.33-2.15,8.76,0,3.19,2.63,4.78,7.89,4.78,2.46,0,6.58-1.79,12.35-5.36-.97-2.27-1.46-4.44-1.46-6.52,0-3.04,.74-6.14,2.23-9.31,1.49-3.16,3.69-6.79,6.61-10.9Z"/></g><g><path d="M140.13,161.23v4.92c0,2.03-.47,3.31-1.42,3.84-.94,.53-4.41,1.96-10.38,4.27-5.98,2.32-11.71,5.05-17.2,8.18,2.12-2.61,4.05-4.54,5.79-5.79,1.74-1.25,4.1-2.82,7.08-4.71-2.57-.87-6.15-1.3-10.72-1.3-7.09,0-14.74,1.18-22.95,3.55-8.21,2.37-15.19,5.19-20.93,8.47-5.75,3.28-8.62,6.04-8.62,8.26,0,1.16,.87,2.11,2.62,2.86,1.74,.75,4.55,1.33,8.41,1.74,3.86,.41,8.68,.69,14.46,.83,5.78,.15,12.9,.22,21.36,.22,6.18,0,10.15,.19,11.93,.58,1.77,.39,2.66,1.28,2.66,2.68,0,1.79-1.04,3.83-3.13,6.12-2.09,2.29-4.85,3.66-8.28,4.09-5.32,.72-9.55,1.34-12.7,1.85-3.15,.51-6.88,1.36-11.2,2.57-4.32,1.21-9.11,2.95-14.37,5.21-7.84,3.48-13.96,7-18.36,10.57-4.41,3.57-6.61,6.74-6.61,9.49,0,2.37,1.57,4.21,4.72,5.54,3.15,1.33,7.66,1.99,13.56,1.99,20.3,0,40.98-7.7,62.03-23.1,.11,4.73-.5,8.9-1.84,12.49-1.34,3.6-4.08,7.04-8.19,10.32-3.43,2.75-8.45,5.38-15.06,7.89-6.61,2.51-13.81,4.51-21.62,6.01-7.81,1.5-15.14,2.25-22.01,2.25-7.95,0-14.53-1.61-19.73-4.82-5.21-3.21-7.81-7.47-7.81-12.78,0-3.86,1.26-7.7,3.78-11.51,2.52-3.81,6.38-7.47,11.58-10.97,5.2-3.5,11.8-6.67,19.78-9.52s17.17-5.09,27.58-6.74c1.49-.24,2.23-.63,2.23-1.16,0-.58-.87-.93-2.62-1.05-1.75-.12-4.95-.2-9.61-.25-4.66-.05-8.77-.22-12.31-.51-3.55-.29-7.29-.92-11.24-1.88-4.06-1.06-7.19-2.92-9.4-5.58-2.2-2.65-3.3-5.6-3.3-8.84,0-4.15,1.77-8.33,5.32-12.53,3.55-4.2,8.55-7.99,15.01-11.37,6.46-3.38,14.29-6.1,23.47-8.15,9.18-2.05,19.23-3.08,30.16-3.08,6.29,0,10.68,.3,13.17,.91,2.49,.6,3.93,1.4,4.33,2.39,.4,.99,.6,2.84,.6,5.54Z"/><path d="M145.28,216.71c8.69-6.66,17.13-11.61,25.31-14.85,8.18-3.23,14.5-4.85,18.96-4.85,1.2,0,2.32,.42,3.35,1.27,1.03,.85,1.84,1.82,2.45,2.93,.6,1.11,.9,1.93,.9,2.46,0,.87-.4,1.51-1.2,1.92-.8,.41-2.2,.91-4.2,1.48,.4,.77,.91,1.76,1.54,2.97,.63,1.21,1.12,2.18,1.46,2.93,.34,.75,.52,1.41,.52,1.99,0,1.16-1.39,3.32-4.16,6.48-2.78,3.16-4.72,5.49-5.83,6.99-1.12,1.5-1.67,3.33-1.67,5.5,0,3.57,1.94,5.36,5.83,5.36s10.27-3.16,18.79-9.49v4.42c-14.47,13.57-24.82,20.35-31.06,20.35-2.23,0-3.82-.62-4.76-1.85-.94-1.23-1.42-3.05-1.42-5.47,0-3.81,1.63-9.34,4.89-16.58-8.35,7.82-14.56,13.39-18.62,16.69-4.06,3.31-7.41,4.96-10.04,4.96-1.26,0-2.83-.92-4.72-2.75s-3.56-4.21-5.02-7.13-2.19-5.95-2.19-9.09c0-2.27,.26-4.16,.77-5.69,.51-1.52,1.51-3.08,3-4.67,1.49-1.59,3.86-3.69,7.12-6.3Zm41.1-7.97c-14.87,5.75-25.47,10.62-31.79,14.63-6.32,4.01-9.48,8.14-9.48,12.38,0,1.55,.31,2.81,.94,3.8,.63,.99,1.49,1.48,2.57,1.48,.63,0,1.74-.34,3.35-1.01,6.01-2.99,11.5-6.89,16.47-11.7,4.98-4.8,10.95-11.33,17.93-19.59Z"/><path d="M236.65,192.09h3.69c3.03-4.59,5.78-7.83,8.24-9.74,2.46-1.91,5.26-2.86,8.41-2.86s4.72,.6,4.72,1.81c0,.58-1.23,2.15-3.69,4.71-2.46,2.56-4.32,4.71-5.58,6.45,1.94,.19,3.67,.36,5.19,.51,1.52,.15,2.7,.27,3.56,.36-3.26,5.12-7.35,10.36-12.27,15.72-1.6-.1-2.95-.18-4.03-.25-1.09-.07-2.19-.15-3.3-.22s-2.47-.16-4.08-.25c-3.09,4.2-5.68,7.96-7.76,11.26-2.09,3.31-3.69,6.34-4.8,9.09-1.12,2.75-1.67,5.36-1.67,7.82,0,3.33,1.57,5,4.72,5,2.17,0,5.02-.98,8.54-2.93,3.52-1.96,8.22-4.96,14.11-9.02v4.85c-15.44,14.15-26.85,21.22-34.23,21.22-2.57,0-4.65-.85-6.22-2.54-1.57-1.69-2.36-3.86-2.36-6.52,0-1.79,.44-3.91,1.33-6.37,.89-2.46,2.47-6.18,4.76-11.15-.8,.58-1.56,1.15-2.27,1.7-.72,.56-1.37,1.06-1.97,1.52s-1.24,.94-1.93,1.45c-.69,.51-1.37,1.03-2.06,1.56v-5c6.01-4.25,13.27-11.71,21.79-22.38-.86-.05-1.66-.08-2.4-.11-.74-.02-1.63-.04-2.66-.04-3.38,0-5.89,.19-7.55,.58-.69,.14-1.33,.3-1.93,.47-.6,.17-1.02,.25-1.24,.25s-.34-.14-.34-.43c0-1.59,1.17-3.98,3.52-7.17,1.89-2.7,3.67-4.71,5.36-6.01,1.69-1.3,3.75-2.18,6.18-2.64,2.43-.46,5.85-.69,10.25-.69Z"/><path d="M329.74,251.91c-4.06,0-7.98-1.06-11.75-3.19-3.77-2.12-6.81-5.07-9.09-8.84-2.29-3.77-3.43-7.97-3.43-12.6,0-6.18,2.79-11.8,8.37-16.88,5.58-5.07,13.8-10.07,24.67-14.99-.57-3.04-.86-5.19-.86-6.45,0-4.88,1.21-9.46,3.65-13.76,2.43-4.3,5.59-7.95,9.48-10.97,3.89-3.02,8.01-5.33,12.36-6.95,4.35-1.62,8.49-2.43,12.44-2.43,4.58,0,8.26,.93,11.07,2.79,2.8,1.86,4.2,4.26,4.2,7.21,0,3.91-1.19,7.41-3.56,10.5-2.37,3.09-5.41,5.85-9.09,8.29-3.69,2.44-8.22,5.07-13.6,7.89-5.38,2.82-8.64,4.6-9.78,5.32,1.83,6.08,4.6,12.31,8.32,18.69,5.15-2.94,9.18-5.59,12.1-7.93,2.92-2.34,5.38-4.5,7.38-6.48,2-1.98,3.35-2.97,4.03-2.97,.52,0,.94,.53,1.29,1.59,.34,1.06,.51,2.22,.51,3.48,0,2.95-.63,5.72-1.89,8.33-1.26,2.61-3.05,5.21-5.36,7.82-2.32,2.61-5.19,5.38-8.62,8.33l5.66,5.21c.52-.39,1.14-.94,1.89-1.67,.74-.72,1.32-1.22,1.72-1.48,.4-.26,.83-.4,1.29-.4,.57,0,1.01,.19,1.33,.58,.31,.39,.47,.82,.47,1.3,0,1.98-1.66,5.3-4.98,9.96-3.32,4.66-6.06,6.99-8.24,6.99-1.14,0-2.26-.4-3.35-1.19-1.09-.8-2.4-2.08-3.95-3.84-1.54-1.76-2.8-3.25-3.78-4.45-6.58,4.25-12.43,7.51-17.55,9.78-5.12,2.27-9.57,3.4-13.34,3.4Zm11.58-47c-4.23,2.46-7.99,5.12-11.28,7.97-3.29,2.85-5.89,5.61-7.81,8.29-1.92,2.68-2.87,4.91-2.87,6.7,0,3.57,1.92,5.36,5.75,5.36,2.8,0,6.61-.78,11.41-2.35s9.61-3.85,14.41-6.84c-2.52-4.92-5.72-11.3-9.61-19.12Zm11.58-21.65v2.97c8.24-3.91,14.63-8.04,19.18-12.38,4.55-4.35,6.82-7.8,6.82-10.36,0-2.17-1.29-3.26-3.86-3.26-2.35,0-5.32,1.17-8.92,3.51-3.6,2.34-6.71,5.29-9.31,8.84-2.6,3.55-3.9,7.11-3.9,10.68Z"/><path d="M534.63,229.39v3.84c-6.52,4.63-12.98,9.07-19.39,13.29-6.41,4.23-14.19,8.94-23.34,14.16-4.69,5.41-8.72,9.84-12.1,13.29-3.38,3.45-6.29,6.31-8.75,8.58-2.46,2.27-3.72,3.43-3.78,3.48-.8,.82-2.14,1.64-4.03,2.46-1.89,.82-3.46,1.23-4.72,1.23-1.77,0-3.25-.54-4.42-1.63-1.17-1.09-1.76-2.38-1.76-3.88,0-3.86,2.4-7.98,7.21-12.35s11.84-8.85,21.11-13.43c4.58-5.55,8.95-11.14,13.13-16.77,4.17-5.62,7.82-10.75,10.94-15.39,3.12-4.63,5.99-9.2,8.62-13.69-4.12,2.9-8.21,5.68-12.27,8.36-4.06,2.68-8.04,5.24-11.93,7.68-3.89,2.44-6.29,3.95-7.21,4.53-.92,.58-1.72,1.09-2.4,1.52-9.95,7.34-17.39,11.01-22.31,11.01s-8.64-1.88-11.84-5.65c-3.2-3.77-4.8-8.52-4.8-14.27,0-3.62,.69-7.4,2.06-11.33,1.37-3.93,3.48-7.98,6.31-12.13,2.83-4.15,6.22-8.16,10.17-12.02,3.95-3.86,8.29-7.41,13.04-10.65,7.32-4.92,15.53-9.33,24.62-13.22,9.09-3.89,17.56-6.86,25.4-8.91,7.84-2.05,13.61-3.08,17.33-3.08,2.17,0,3.9,.45,5.19,1.34,1.29,.89,2.2,2.1,2.75,3.62,.54,1.52,.82,3.13,.82,4.82,0,1.55-.57,3.09-1.72,4.64-1.66,2.08-4.58,4.26-8.75,6.55-4.18,2.29-8.38,4.32-12.61,6.08-4.23,1.76-6.66,2.64-7.29,2.64-.34,0-.51-.1-.51-.29,0-.43,.66-1.13,1.97-2.1,1.32-.97,2.77-1.96,4.38-2.97,3.55-2.27,5.63-4.68,6.26-7.24-5.55,1.3-11.07,3.02-16.56,5.14-5.49,2.12-10.93,4.66-16.3,7.6-5.38,2.95-10.75,6.3-16.13,10.07-6.06,4.3-11.23,8.78-15.49,13.43-4.26,4.66-7.49,8.97-9.7,12.93-2.2,3.96-3.3,7-3.3,9.12,0,1.59,.6,2.98,1.8,4.17,1.2,1.18,2.83,1.77,4.89,1.77,2.4,0,5.38-.89,8.92-2.68,3.83-1.93,8.05-4.41,12.66-7.42,4.6-3.02,8.85-5.88,12.74-8.58,3.89-2.7,8.09-5.67,12.61-8.91,4.17-2.94,7.42-5.32,9.74-7.13s4.05-3.39,5.19-4.74c2.4-2.8,4.79-4.42,7.16-4.85,2.37-.43,4.4-.04,6.09,1.2,1.69,1.23,2.53,2.74,2.53,4.53,0,.58-1.24,2.84-3.73,6.77-2.49,3.94-6.29,9.63-11.41,17.09-5.12,7.46-11.43,16.26-18.92,26.4,6.63-2.99,17.25-9,31.83-18.03Z"/><path d="M589.36,229.53v4.85c-3.77,2.9-6.81,4.83-9.09,5.79-2.29,.97-5.58,1.35-9.87,1.16-7.44,7.44-13.98,11.15-19.65,11.15-3.2,0-6.12-.89-8.75-2.68-2.63-1.79-4.73-4.22-6.31-7.31-1.57-3.09-2.36-6.54-2.36-10.36,0-3.09,1.21-6.52,3.65-10.28,2.43-3.77,5.58-7.28,9.44-10.54,3.86-3.26,7.99-5.89,12.4-7.9,4.4-2,8.49-3.01,12.27-3.01,2.69,0,4.8,.35,6.35,1.05,1.54,.7,2.32,1.68,2.32,2.93,0,.97-.66,2.08-1.97,3.33,2.17,.39,3.66,1.03,4.46,1.92,.8,.89,1.2,2.52,1.2,4.89s-.64,5.24-1.93,8.76c-1.29,3.52-3.05,6.83-5.28,9.92l1.54,1.3h1.29c.97,0,1.93-.21,2.87-.62,.94-.41,1.79-.84,2.53-1.3,.74-.46,2.37-1.48,4.89-3.08Zm-17.67-19.05c-4.75,2.42-8.81,4.6-12.18,6.55-3.38,1.96-6.23,3.94-8.58,5.94-2.35,2-3.92,4.02-4.72,6.05-1.43,5.41-2.15,8.33-2.15,8.76,0,3.19,2.63,4.78,7.89,4.78,2.46,0,6.58-1.79,12.35-5.36-.97-2.27-1.46-4.44-1.46-6.52,0-3.04,.74-6.14,2.23-9.31,1.49-3.16,3.69-6.79,6.61-10.9Z"/></g></g><path class="i" d="M321.82,167.24s-3.23-55.41-73.25-54.09c0,0,16.98,76.62,71.9,60.11l-46.8-40.29"/><path class="j" d="M317.13,144.5s-4.1-34.7,39.44-41.58c0,0-2.09,49.36-37.95,45.17l24.57-30.12"/><path d="M159.26,82.89c12.86-22.79,31.81-42.47,54.05-56.4C258.52-1.47,316.31-6.92,366.86,8.37c3.22,.84,7.56,2.64,10.75,3.7,3.18,1.04,7.37,3.1,10.5,4.36,1.75,.71,3.42,1.63,5.11,2.49,2.89,1.49,7.26,3.65,9.98,5.4l4.88,2.9,1.22,.72c1.14,.73,2.46,1.69,3.52,2.39,2.6,1.77,6.75,4.62,9.16,6.66,16.31,12.54,30.46,28.33,40.96,45.9-15.22-19.89-33.92-36.7-55.44-49.34-41.79-24.64-92.99-31.01-140.18-21.11-43.42,8.61-82.34,34.4-108.06,70.45h0Z"/><path d="M459.79,319.1c-33.3,50.09-94.08,80.13-154.18,78.27-41.34-.55-83.32-13.66-114.66-41.25-14.01-12.31-25.99-27.19-34.84-43.47,12.81,18.15,28.35,33.91,46.63,46.33,30.21,20.38,66.76,30.01,103.03,30.4,58.84,1.84,116.12-25.19,154.02-70.28h0Z"/></svg>