<?xml version="1.0" encoding="UTF-8"?><svg id="a" xmlns="http://www.w3.org/2000/svg" xmlns:xlink="http://www.w3.org/1999/xlink" viewBox="0 0 308.01 354.66"><defs><style>.cls-1{fill:url(#Namnlös_övertoning_4);}.cls-2{fill:url(#Namnlös_övertoning_2);}.cls-3{font-family:BrushScriptMT, 'Brush Script MT';font-size:120px;isolation:isolate;}.cls-4{fill:url(#Namnlös_övertoning);}.cls-5{fill:url(#Namnlös_övertoning_3);}</style><linearGradient id="Namnlös_övertoning" x1="35.09" y1="599.89" x2="268.4" y2="599.89" gradientTransform="translate(0 -320)" gradientUnits="userSpaceOnUse"><stop offset=".67" stop-color="#009245"/><stop offset=".73" stop-color="#34b24a"/><stop offset=".92" stop-color="#34b24a"/></linearGradient><linearGradient id="Namnlös_övertoning_2" x1="38.06" y1="406.59" x2="265.6" y2="406.59" gradientTransform="translate(0 -320)" gradientUnits="userSpaceOnUse"><stop offset="0" stop-color="#39b54a"/><stop offset=".36" stop-color="#159f47"/><stop offset=".5" stop-color="#0b8640"/><stop offset=".67" stop-color="#037039"/><stop offset=".78" stop-color="#006837"/></linearGradient><linearGradient id="Namnlös_övertoning_3" x1="92.5" y1="448.09" x2="165.7" y2="448.09" gradientTransform="translate(0 -320)" gradientUnits="userSpaceOnUse"><stop offset=".15" stop-color="#39b54a"/><stop offset=".31" stop-color="#34b24a"/><stop offset=".42" stop-color="#1ea547"/><stop offset=".56" stop-color="#089745"/><stop offset=".66" stop-color="#009245"/></linearGradient><linearGradient id="Namnlös_övertoning_4" x1="160.9" y1="429.31" x2="200.44" y2="429.31" gradientTransform="translate(0 -320)" gradientUnits="userSpaceOnUse"><stop offset=".15" stop-color="#39b54a"/><stop offset=".31" stop-color="#34b24a"/><stop offset=".42" stop-color="#1ea547"/><stop offset=".56" stop-color="#089745"/><stop offset=".66" stop-color="#009245"/></linearGradient></defs><path class="cls-4" d="M265.2,252.69c-12,18.6-29.4,34.1-49.5,44.4-10,5.2-20.8,9-31.8,11.6l-4.1,.9c-1.4,.3-2.8,.5-4.2,.7l-4.2,.7c-1.4,.2-2.8,.3-4.2,.4l-4.2,.4c-1.4,.1-2.8,.1-4.3,.2l-4.3,.1c-1.4,0-2.8,0-4.2-.1-5.6-.1-11.3-.5-16.9-1.2l-4.2-.6c-1.4-.2-2.8-.4-4.2-.7-2.8-.6-5.6-1.1-8.3-1.8-11-2.7-21.7-6.8-31.6-12.4-2.4-1.5-4.9-2.9-7.3-4.4-2.3-1.6-4.7-3.2-6.9-4.9-2.2-1.8-4.4-3.6-6.5-5.4-2-2-4.1-3.8-6.1-5.8-7.8-8.1-14.4-17.2-19.5-27.1,6.6,8.9,13.9,17.1,22.2,24.2,2.1,1.8,4.2,3.4,6.3,5.1,2.2,1.6,4.4,3.1,6.6,4.7l6.9,4.3c2.4,1.3,4.8,2.5,7.1,3.8,9.7,4.7,19.9,8.2,30.4,10.5,2.6,.5,5.3,1,7.9,1.5,1.3,.3,2.7,.4,4,.6l4,.5c5.4,.6,10.7,1,16.1,1,21.5,.5,43.1-3.7,62.8-12.6,19.8-8.6,37.5-22,52.2-38.6h0Z"/><path class="cls-2" d="M41.4,117.29c5.1-9.6,11.8-18.4,19.5-26.2,2-1.9,4-3.8,6.1-5.6,2.1-1.7,4.3-3.5,6.5-5.2,2.3-1.6,4.5-3.2,6.8-4.7l3.6-2.1c1.2-.7,2.4-1.5,3.6-2.1,9.7-5.3,20.3-9.1,31.1-11.7,10.8-2.5,21.9-3.7,33-3.8,22.2,0,44.6,5.2,64,16,19.5,10.6,35.9,26.5,46.6,45.4-13.5-17-30.4-30.7-49.5-39.8-9.5-4.5-19.6-8-29.8-10.2l-3.9-.8c-1.3-.2-2.6-.6-3.9-.7l-3.9-.6c-1.3-.2-2.6-.4-3.9-.5-2.6-.2-5.2-.5-7.9-.6l-7.9-.2c-21.1,0-42.2,4-61.3,13-9.5,4.5-18.6,10.2-26.7,17-8.2,6.9-15.5,14.8-22.1,23.4h0Z"/><path class="cls-5" d="M165.7,150.99s-3.2-55.4-73.2-54.1c0,0,17,76.6,71.9,60.1l-46.8-40.3"/><path class="cls-1" d="M161,128.19s-4.1-34.7,39.4-41.6c0,0-2.1,49.4-38,45.2l24.6-30.1"/><path d="M0,82.89C12.9,60.09,31.8,40.39,54.1,26.49,99.3-1.51,157.1-6.91,207.6,8.39c3.2,.8,7.6,2.6,10.8,3.7,3.2,1,7.4,3.1,10.5,4.4,1.8,.7,3.4,1.6,5.1,2.5,2.9,1.5,7.3,3.7,10,5.4l4.9,2.9,1.2,.7c1.1,.7,2.5,1.7,3.5,2.4,2.6,1.8,6.8,4.6,9.2,6.7,16.3,12.5,30.5,28.3,41,45.9-15.2-19.9-33.9-36.7-55.4-49.3C206.6,9.09,155.4,2.69,108.2,12.59,64.7,20.99,25.7,46.79,0,82.89H0Z"/><path d="M303.7,276.29c-33.3,50.1-94.1,80.1-154.2,78.3-41.3-.5-83.3-13.7-114.7-41.2-14-12.3-26-27.2-34.8-43.5,12.8,18.1,28.4,33.9,46.6,46.3,30.2,20.4,66.8,30,103,30.4,58.9,1.8,116.2-25.2,154.1-70.3h0Z"/><text class="cls-3" transform="translate(50.49 235.19)"><tspan x="0" y="0">Meny </tspan></text></svg>